<svg xmlns="http://www.w3.org/2000/svg" width="30" height="30" viewBox="0 0 30 30">
  <defs>
    <style>
      .cls-1 {
        fill: #1bd0c7;
        fill-rule: evenodd;
      }
    </style>
  </defs>
  <path id="Forma_1" data-name="Forma 1" class="cls-1" d="M15,0A15,15,0,1,0,30,15,15,15,0,0,0,15,0Zm0,27.656A12.656,12.656,0,1,1,27.656,15,12.656,12.656,0,0,1,15,27.656ZM14.211,11.288a2.336,2.336,0,0,1,.416,1.394,2.062,2.062,0,0,1-.419,1.348,2.168,2.168,0,0,1-.688.519,2.029,2.029,0,0,1,1.044.807,2.455,2.455,0,0,1,.351,1.341,2.683,2.683,0,0,1-.4,1.457,2.542,2.542,0,0,1-.639.723,2.507,2.507,0,0,1-1.021.458,6.351,6.351,0,0,1-1.277.122H7.5V10.313h4.37A2.744,2.744,0,0,1,14.211,11.288ZM9.3,11.9v2.014h2.2a1.818,1.818,0,0,0,.957-0.225,0.875,0.875,0,0,0,.366-0.8,0.821,0.821,0,0,0-.485-0.844A3.371,3.371,0,0,0,11.27,11.9H9.3Zm0,3.531V17.87H11.5a2.129,2.129,0,0,0,.915-0.162,1.155,1.155,0,0,0,.6-1.142,0.982,0.982,0,0,0-.577-0.981,2.23,2.23,0,0,0-.9-0.152H9.3Zm11.448-2.6a2.741,2.741,0,0,1,1.157,1,3.412,3.412,0,0,1,.533,1.4,8.936,8.936,0,0,1,.057,1.339H17.629a1.631,1.631,0,0,0,.7,1.429,1.752,1.752,0,0,0,.961.254,1.364,1.364,0,0,0,1.331-.775h1.784a2.236,2.236,0,0,1-.648,1.224,3.239,3.239,0,0,1-2.515.985,3.619,3.619,0,0,1-2.354-.832,3.3,3.3,0,0,1-1.018-2.708,3.686,3.686,0,0,1,.921-2.7,3.2,3.2,0,0,1,2.389-.938A3.8,3.8,0,0,1,20.751,12.831Zm-2.613,1.528a1.856,1.856,0,0,0-.465,1.049h3.01a1.482,1.482,0,0,0-.467-1.07,1.516,1.516,0,0,0-1.035-.364A1.385,1.385,0,0,0,18.138,14.359ZM16.875,11.25h4.688v0.938H16.875V11.25Z"/>
</svg>
