<svg xmlns="http://www.w3.org/2000/svg" width="30" height="30" viewBox="0 0 30 30">
  <defs>
    <style>
      .cls-1 {
        fill: #1bd0c7;
        fill-rule: evenodd;
      }
    </style>
  </defs>
  <path id="Forma_1" data-name="Forma 1" class="cls-1" d="M15,0A15,15,0,1,0,30,15,15,15,0,0,0,15,0Zm0,27.656A12.656,12.656,0,1,1,27.656,15,12.656,12.656,0,0,1,15,27.656ZM18.56,12.7H15.95V10.8a0.8,0.8,0,0,1,.886-0.72h1.685V7.51L16.59,7.5a2.96,2.96,0,0,0-3.237,3.145V12.7H11.44v2.648h1.913V22.5h2.6V15.352h2.206Z"/>
</svg>
