<svg xmlns="http://www.w3.org/2000/svg" width="30" height="30" viewBox="0 0 30 30">
  <defs>
    <style>
      .cls-1 {
        fill: #1bd0c7;
        fill-rule: evenodd;
      }
    </style>
  </defs>
  <path id="Forma_1" data-name="Forma 1" class="cls-1" d="M15,0A15,15,0,1,0,30,15,15,15,0,0,0,15,0Zm0,27.656A12.656,12.656,0,1,1,27.656,15,12.656,12.656,0,0,1,15,27.656ZM7.506,22.494h2.812V11.244H7.506v11.25Zm11.25-11.25a5.159,5.159,0,0,0-3.75,1.875V11.244H12.193v11.25h2.813V15.931a2.39,2.39,0,0,1,2.813-1.875c1.192,0.078,1.835,1.654,1.875,1.875v6.563l2.8,0.013V14.718A3.51,3.51,0,0,0,18.756,11.244ZM8.912,7.494A1.406,1.406,0,1,0,10.318,8.9,1.406,1.406,0,0,0,8.912,7.494Z"/>
</svg>
