<svg xmlns="http://www.w3.org/2000/svg" width="270" height="100" viewBox="0 0 270 100">
  <defs>
    <style>
      .cls-1 {
        fill: #fff;
        fill-rule: evenodd;
      }
    </style>
  </defs>
  <path class="cls-1" d="M11.85,25.035a13.4,13.4,0,0,1-3.108-.328,9.9,9.9,0,0,1-2.487-.938A9.1,9.1,0,0,1,4.3,22.348a10.413,10.413,0,0,1-1.5-1.82l5.283-4.474A6.723,6.723,0,0,0,9.5,17.615a2.752,2.752,0,0,0,1.727.554,2.077,2.077,0,0,0,1.664-.761,3.161,3.161,0,0,0,.663-2.046V0.22H21.4v15a12.72,12.72,0,0,1-.613,4.108A8.013,8.013,0,0,1,18.839,22.4a8.673,8.673,0,0,1-3.029,1.943,10.857,10.857,0,0,1-3.961.692h0ZM63.164,15.8l-2.21-5.9-2.21,5.9h4.42ZM57.018,0.4h8.011L75.217,24.93H66.446l-1.278-3.223H56.706L55.463,24.93H46.829Zm52.838,24.894a12.813,12.813,0,0,1-4.083-.882,11.919,11.919,0,0,1-6.71-6.553,12.644,12.644,0,0,1-.978-5.132V12.658a12.748,12.748,0,0,1,.936-5.029,12.147,12.147,0,0,1,2.706-4.024,12.663,12.663,0,0,1,4.11-2.652,12.992,12.992,0,0,1,4.019-.916v7.34a3.6,3.6,0,0,0-.958.321,4.278,4.278,0,0,0-1.43,1.145,5.4,5.4,0,0,0-.883,1.7,6.317,6.317,0,0,0-.3,2.044v0.071a6.857,6.857,0,0,0,.289,2.167,5.009,5.009,0,0,0,.912,1.7,4.4,4.4,0,0,0,1.454,1.108,3.466,3.466,0,0,0,.912.3v7.357ZM146.592,0.579h8.2V9.6l6.821-9.026h9.394L162.583,11.07l8.6,13.681h-9.636l-4.706-7.677-2.047,2.553v5.124h-8.2V0.579Zm62.145,24.666a22.5,22.5,0,0,1-6.892-1.022,15.2,15.2,0,0,1-5.507-3.071l4.317-5.167a12.765,12.765,0,0,0,4.143,2.184,14.827,14.827,0,0,0,4.316.66,3.273,3.273,0,0,0,1.571-.278,0.828,0.828,0,0,0,.464-0.761V17.719a1,1,0,0,0-.687-0.867,12.233,12.233,0,0,0-2.635-.727c-1.357-.278-2.647-0.6-3.88-0.972a13.451,13.451,0,0,1-3.243-1.421,6.993,6.993,0,0,1-2.253-2.167,5.913,5.913,0,0,1-.855-3.243V8.252a7.754,7.754,0,0,1,.7-3.224,7.463,7.463,0,0,1,1.983-2.6A9.33,9.33,0,0,1,203.5.694,14.244,14.244,0,0,1,207.9.069,20.6,20.6,0,0,1,214.07.9a14.705,14.705,0,0,1,4.749,2.5l-3.936,5.479a12.073,12.073,0,0,0-3.645-1.82,12.629,12.629,0,0,0-3.608-.574,2.642,2.642,0,0,0-1.364.278,0.874,0.874,0,0,0-.467.729V7.56a0.839,0.839,0,0,0,.173.451,1.43,1.43,0,0,0,.518.4,5.337,5.337,0,0,0,.994.364c0.415,0.114.947,0.231,1.592,0.345a35.159,35.159,0,0,1,4.216,1.007,12.375,12.375,0,0,1,3.265,1.507,6.643,6.643,0,0,1,2.08,2.2,6.147,6.147,0,0,1,.716,3.122v0.069a7.585,7.585,0,0,1-.733,3.433,7.316,7.316,0,0,1-2.127,2.583,10.039,10.039,0,0,1-3.361,1.63,15.9,15.9,0,0,1-4.4.571h0Zm48.118-7.109a4.679,4.679,0,0,0,2.073-.451,4.967,4.967,0,0,0,1.589-1.195,5.118,5.118,0,0,0,.967-1.716,6.059,6.059,0,0,0,.313-2.046V12.658a5.881,5.881,0,0,0-.33-2.064,5.539,5.539,0,0,0-1-1.751,4.808,4.808,0,0,0-1.581-1.214,4.737,4.737,0,0,0-2.1-.451,4.675,4.675,0,0,0-2.071.451,4.927,4.927,0,0,0-1.586,1.2,5.176,5.176,0,0,0-.988,1.716,6.046,6.046,0,0,0-.328,2.044v0.071a5.935,5.935,0,0,0,.346,2.061,5.6,5.6,0,0,0,1.013,1.751,4.827,4.827,0,0,0,1.583,1.214,4.755,4.755,0,0,0,2.1.451h0Zm-0.068,7.179a13.742,13.742,0,0,1-5.2-.97,13.081,13.081,0,0,1-4.179-2.669,12.313,12.313,0,0,1-3.8-8.947V12.658a12.122,12.122,0,0,1,1.031-4.942,12.619,12.619,0,0,1,2.8-4.022,13.145,13.145,0,0,1,4.2-2.706A14.337,14.337,0,0,1,262.052.97a13.08,13.08,0,0,1,4.18,2.672A12.251,12.251,0,0,1,270,12.586v0.071a12.089,12.089,0,0,1-1.011,4.94,12.567,12.567,0,0,1-2.795,4.021A13.107,13.107,0,0,1,262,24.326a13.653,13.653,0,0,1-5.213.988h0ZM0,49.639H7.55l8.5,10.742V49.639h8.025V73.991h-7.1L8.025,62.741v11.25H0V49.639ZM62.475,74.46a15.327,15.327,0,0,1-5.3-.9,13.126,13.126,0,0,1-4.317-2.566A11.973,11.973,0,0,1,49.935,67a12.284,12.284,0,0,1-1.071-5.132V61.8a12.564,12.564,0,0,1,1.02-5.026,12.048,12.048,0,0,1,2.808-4.024A12.981,12.981,0,0,1,56.927,50.1a14.4,14.4,0,0,1,5.3-.953,15.527,15.527,0,0,1,5.647.97,14.813,14.813,0,0,1,4.474,2.7L67.827,58.3a10.008,10.008,0,0,0-2.521-1.559,7.174,7.174,0,0,0-2.831-.556,5.428,5.428,0,0,0-2.178.433,5.246,5.246,0,0,0-1.727,1.2,5.344,5.344,0,0,0-1.113,1.8,6.391,6.391,0,0,0-.39,2.29v0.069a6.265,6.265,0,0,0,.424,2.357,5.427,5.427,0,0,0,1.188,1.84,5.244,5.244,0,0,0,1.811,1.177,6.272,6.272,0,0,0,2.329.416,8.144,8.144,0,0,0,1.68-.138,4.536,4.536,0,0,0,1.128-.416V64.68h-4.28V59.666h11.77V70.825a15.013,15.013,0,0,1-4.648,2.629,16.991,16.991,0,0,1-5.995,1.007h0Zm47.532-7.274a4.693,4.693,0,0,0,2.073-.4,4.894,4.894,0,0,0,1.589-1.173,5.17,5.17,0,0,0,1.006-1.7,6,6,0,0,0,.351-2.035V61.8a5.953,5.953,0,0,0-.368-2.061,5.7,5.7,0,0,0-1.021-1.753,5.054,5.054,0,0,0-1.632-1.212,4.633,4.633,0,0,0-2.15-.451V49.1h0.152a13.746,13.746,0,0,1,5.2.993,13.106,13.106,0,0,1,4.179,2.681,12.375,12.375,0,0,1,3.846,8.958V61.8a12.089,12.089,0,0,1-1.052,4.942,12.647,12.647,0,0,1-2.812,4.022,13.351,13.351,0,0,1-4.247,2.706,13.566,13.566,0,0,1-5.264.988V67.187h0.152Zm35.336-17.547h8.4l5.18,8.531,5.18-8.531h8.347V73.991h-8.025V61.908l-5.519,8.68h-0.14l-5.576-8.68V73.991h-7.847V49.639Zm52.074,0H218.1v6.625H205.443v2.507h11.77V64.68h-11.77v2.507h12.84v6.8H197.417V49.639Zm60.267,24.752a22.424,22.424,0,0,1-6.889-1.024,15.172,15.172,0,0,1-5.509-3.068l4.317-5.167a12.812,12.812,0,0,0,4.145,2.184,14.812,14.812,0,0,0,4.317.66,3.487,3.487,0,0,0,1.616-.278,0.88,0.88,0,0,0,.511-0.763V66.866A1.055,1.055,0,0,0,259.456,66a12.439,12.439,0,0,0-2.656-.729c-1.357-.276-2.659-0.6-3.892-0.971a13.508,13.508,0,0,1-3.248-1.421,6.851,6.851,0,0,1-2.211-2.167,5.922,5.922,0,0,1-.811-3.243V57.4a7.726,7.726,0,0,1,.655-3.224,7.373,7.373,0,0,1,1.959-2.6,9.263,9.263,0,0,1,3.206-1.734,14.262,14.262,0,0,1,4.4-.623,20.582,20.582,0,0,1,6.165.832,14.705,14.705,0,0,1,4.748,2.5l-3.937,5.479a12.13,12.13,0,0,0-3.645-1.822,12.634,12.634,0,0,0-3.608-.571,2.459,2.459,0,0,0-1.319.278,0.821,0.821,0,0,0-.421.727v0.069a0.787,0.787,0,0,0,.127.451,1.266,1.266,0,0,0,.5.4,5,5,0,0,0,.981.364c0.414,0.117.943,0.231,1.587,0.347a35.724,35.724,0,0,1,4.214,1,12.462,12.462,0,0,1,3.264,1.509,6.788,6.788,0,0,1,2.126,2.2,6.149,6.149,0,0,1,.76,3.12v0.071a7.642,7.642,0,0,1-.777,3.433,7.408,7.408,0,0,1-2.151,2.583,10.114,10.114,0,0,1-3.373,1.628,15.921,15.921,0,0,1-4.41.573h0ZM151.229,96.91v-7.52h-0.892v5.757a3.333,3.333,0,0,1-2.451,1.248,1.6,1.6,0,0,1-1.829-1.872V89.389h-0.714v5.319c0,1.7.8,2.419,2.326,2.419a3.564,3.564,0,0,0,2.668-1.3V96.91h0.892Zm8.276,0-2.968-3.861,2.8-3.66h-0.964l-2.315,3.105-2.333-3.105h-0.962l2.8,3.66L152.59,96.91h0.964l2.5-3.323,2.487,3.323h0.962Zm13.524,0c-0.762-.716-1.4-1.278-2.006-1.889a13.667,13.667,0,0,0,1.368-2.77l-0.745-.307a10.346,10.346,0,0,1-1.181,2.529c-0.451-.468-0.9-0.967-1.385-1.513a19.076,19.076,0,0,1-1.336-1.638c1.336-.718,2.689-1.419,2.689-2.98a1.936,1.936,0,0,0-2.176-1.966,2.382,2.382,0,0,0-2.472,2.372,4.725,4.725,0,0,0,.855,2.387c-1.212.671-2.315,1.5-2.315,3.153a2.819,2.819,0,0,0,3.124,2.84,3.946,3.946,0,0,0,3.046-1.451c0.481,0.485.964,0.875,1.321,1.233h1.213Zm-5.517-.5a2.131,2.131,0,0,1-2.286-2.169,2.942,2.942,0,0,1,1.8-2.527,20.153,20.153,0,0,0,1.4,1.764c0.294,0.375.9,1.013,1.537,1.669a3.244,3.244,0,0,1-2.454,1.264h0Zm-0.855-7.647a1.626,1.626,0,0,1,1.615-1.7,1.246,1.246,0,0,1,1.353,1.309c0,1.171-1.074,1.749-2.255,2.372a4.007,4.007,0,0,1-.713-1.982h0Zm19.318,8.146,2.44-7.52h-0.87l-1.988,6.4-2.114-6.4h-0.7l-2.113,6.4-1.989-6.4h-0.872l2.44,7.52h0.777l2.114-6.443,2.1,6.443h0.777Zm7.167,0.218a3.857,3.857,0,0,0,2.936-1.216l-0.419-.531a3.33,3.33,0,0,1-2.455,1.083,2.916,2.916,0,0,1-2.938-2.956h6.26v-0.3c0-2.184-1.25-4-3.533-4a3.967,3.967,0,0,0,.149,7.912h0Zm2.579-4.336h-5.455a2.868,2.868,0,0,1,2.719-2.87,2.771,2.771,0,0,1,2.736,2.87h0Zm3.658,2.262V91.323a2.886,2.886,0,0,1,2.439-1.373c1.677,0,2.61,1.406,2.61,3.23s-0.925,3.215-2.6,3.215a2.875,2.875,0,0,1-2.447-1.341h0Zm0,1.856V95.739a3.143,3.143,0,0,0,2.578,1.389c1.989,0,3.341-1.529,3.341-3.948,0-2.387-1.328-3.963-3.332-3.963a3.068,3.068,0,0,0-2.587,1.406v-4.1h-0.892V96.91h0.892Zm18.369,0V86.525h-0.892v4.1a3.376,3.376,0,0,0-2.633-1.406c-1.988,0-3.35,1.576-3.35,3.963,0,2.42,1.367,3.948,3.356,3.948a3.234,3.234,0,0,0,2.627-1.389V96.91h0.892Zm-3.385-.515c-1.662,0-2.635-1.388-2.635-3.215s0.978-3.23,2.64-3.23a3.174,3.174,0,0,1,2.488,1.373v3.731a3.2,3.2,0,0,1-2.493,1.341h0Zm9,0.733a3.863,3.863,0,0,0,2.938-1.216l-0.419-.531a3.332,3.332,0,0,1-2.457,1.083,2.916,2.916,0,0,1-2.938-2.956h6.182v-0.3c0-2.184-1.209-4-3.495-4a3.968,3.968,0,0,0,.189,7.912h0Zm2.579-4.336h-5.455a2.869,2.869,0,0,1,2.721-2.87,2.772,2.772,0,0,1,2.734,2.87h0Zm5.022,4.336c1.881,0,2.813-1,2.813-2.215,0-2.9-4.725-1.749-4.725-3.638,0-.778.7-1.371,1.867-1.371a2.728,2.728,0,0,1,2.237,1l0.451-.578a3.45,3.45,0,0,0-2.688-1.108c-1.695,0-2.674.936-2.674,2.092,0,2.715,4.74,1.544,4.74,3.605,0,0.873-.746,1.529-2,1.529a3.123,3.123,0,0,1-2.425-1.108l-0.481.593a3.584,3.584,0,0,0,2.889,1.2h0Zm5.178-8.91a0.623,0.623,0,0,0,.62-0.623,0.611,0.611,0,0,0-.62-0.611,0.623,0.623,0,0,0-.623.611,0.635,0.635,0,0,0,.623.623h0Zm0.336,8.692v-7.52H235.76v7.52h0.713Zm5.494,3.09c1.819,0,3.423-.828,3.423-3.122V89.389H244.5v1.233a3.116,3.116,0,0,0-2.627-1.406c-1.988,0-3.347,1.561-3.347,3.948,0,2.419,1.362,3.933,3.351,3.933a3.253,3.253,0,0,0,2.623-1.421v1.2a2.294,2.294,0,0,1-2.564,2.389,2.9,2.9,0,0,1-2.51-1.061l-0.446.653A3.651,3.651,0,0,0,241.967,100h0Zm0.044-3.638c-1.662,0-2.632-1.371-2.632-3.2s0.973-3.215,2.636-3.215a3.193,3.193,0,0,1,2.483,1.373v3.668a3.2,3.2,0,0,1-2.487,1.371h0Zm11.582,0.547V91.666a2.158,2.158,0,0,0-2.415-2.45,3.9,3.9,0,0,0-2.757,1.326V89.389h-0.713v7.52h0.713V91.245a3.329,3.329,0,0,1,2.452-1.3,1.617,1.617,0,0,1,1.828,1.889V96.91h0.892Zm5.672,0.218a3.861,3.861,0,0,0,2.938-1.216l-0.419-.531a3.331,3.331,0,0,1-2.457,1.083,2.917,2.917,0,0,1-2.938-2.956h6.3v-0.3c0-2.184-1.268-4-3.553-4a3.967,3.967,0,0,0,.13,7.912h0Zm2.582-4.336h-5.458a2.87,2.87,0,0,1,2.722-2.87,2.776,2.776,0,0,1,2.736,2.87h0Zm3.695,4.118V91.448a2.566,2.566,0,0,1,2.11-1.341,1.766,1.766,0,0,1,.386.03V89.249a2.972,2.972,0,0,0-2.5,1.451v-1.31H264.65v7.52h0.892Z"/>
</svg>
