<svg xmlns="http://www.w3.org/2000/svg" width="320.344" height="162.719" viewBox="0 0 320.344 162.719">
  <defs>
    <style>
      .cls-1 {
        fill: #fff;
        fill-rule: evenodd;
      }
    </style>
  </defs>
  <path class="cls-1" d="M450.028,459.375c1.835,13.775,12.935,20.019,24.126,20.019,12.385,0,24.769-7.989,24.769-22.13v-43.8H467.917v14.876h14.769v28.927c0,3.764-3.853,6.244-7.889,6.244s-8.348-2.112-9.266-7.346l-15.5,3.213h0Zm0,88.481h16.421V512.98l4.036,9.255,14.678,25.621h36.324c-9.836-2.422-18.022-9.631-18.022-21.581V503.961c0-11.695,8.136-18.735,17.932-21.122H485.438v37.513l-4.128-9.78-15.687-27.733H450.028v65.017h0Zm122.745-43.62c0-4.775,5.137-7.347,10.275-7.347,5.32,0,10.733,2.3,10.733,7.347v22.223c0,4.684-5.229,7.071-10.458,7.071s-10.55-2.3-10.55-7.071V504.236h0Zm-35.906,43.62c9.835-2.422,17.788-9.631,17.788-21.581V510.113H528.51v13.775h10.366v2.387c0,10.1-18.99,10.193-18.99,0V503.961c0-8.541,14.5-10.561,18.073-1.837l13.76-6.336a22.15,22.15,0,0,0-15.251-12.949H575.11c-10.267,2.393-18.758,9.48-18.758,21.4v22.223c0,11.859,8.57,18.991,18.878,21.4H536.867Zm54.539,0H611.9V482.839H591.324c10.307,2.406,18.878,9.538,18.878,21.4v22.223c0,11.859-8.512,18.991-18.8,21.4h0Zm36.914,0h27.338l0.092-18.734,1.008-13.132-0.55-.092-8.531,22.315H636.393L627.678,515.9l-0.459.092,1.1,13.132v18.734h0Zm43.85,0h1.7V482.839h-1.7v65.017h0Zm46.925,0h17.242A30.174,30.174,0,0,1,720.8,537.02l10.366-9.734c6.514,7.9,20.824,8.264,21.284,1.285,0.183-3.673-5.78-5.785-11.1-6.52-10.458-1.653-20-8.264-20-20.661,0-10.03,7.136-16.317,15.978-18.551H719.1v15.428H690.472v10.1H716.8V522.6H690.472v9.734H719.1v15.52h0Zm31.432,0c9.333-2.259,17.629-8.636,18.063-18.55,0.734-15.979-10.825-20.02-22.384-22.131-5.045-1.1-8.44-2.939-8.623-6.061,0.275-7.531,11.926-7.806,18.714-.551L767.03,492.3a26.49,26.49,0,0,0-14.253-9.459h17.536v65.017H750.527ZM655.75,482.839H628.32l13.669,31.774,13.761-31.774h0Zm60.713-25.3c0,14.877,13.486,22.315,26.971,22.315s26.879-7.438,26.879-22.315V435.315c0-14.876-13.485-22.315-26.971-22.315s-26.879,7.347-26.879,22.315v22.223h0Zm16.421-22.223c0-4.775,5.137-7.347,10.275-7.347,5.32,0,10.733,2.3,10.733,7.347v22.223c0,4.684-5.229,7.071-10.458,7.071s-10.55-2.295-10.55-7.071V435.315h0ZM667.568,468.1c6.056,7.805,14.312,11.754,22.109,11.754,11.926,0,25.137-6.887,25.687-19.468,0.734-15.979-10.825-20.019-22.384-22.131-5.046-1.1-8.44-2.939-8.623-6.061,0.275-7.53,11.925-7.806,18.714-.551l10.733-8.265C707.107,415.2,699.493,413,691.6,413c-11.926,0-23.485,6.7-23.485,19.469,0,12.4,9.541,19.009,20,20.661,5.321,0.735,11.284,2.847,11.1,6.52-0.459,6.979-14.77,6.612-21.283-1.285L667.568,468.1h0Zm-39.134-30.121v-24.06H611.922v65.017h16.512v-22.5l0.551-.734,16.605,23.233h20.824l-25.6-33.611,25.686-31.406H646.049l-17.615,24.06h0ZM596.547,458.64c-3.577,9-18.255,6.8-18.255-1.01V435.223c0-8.081,14.5-9.917,18.9-1.836l13.393-5.419C605.355,416.4,595.722,413,587.741,413c-13.027,0-25.87,7.53-25.87,22.223V457.63c0,14.785,12.843,22.223,25.6,22.223a26.128,26.128,0,0,0,23.393-14.6l-14.312-6.612h0ZM537.6,413.918H522.645l-22.659,65.017H517.6l4.036-13.04h17.339l4.219,13.04h17.614L537.6,413.918h0ZM525.3,451.294l4.771-19.009h0.458l4.5,19.009H525.3ZM450,552.559v15.909c0,4.821,4.3,7.264,8.637,7.264,4.3,0,8.637-2.443,8.637-7.264V552.559h-2.7v15.909c0,3.085-2.986,4.564-5.94,4.564-2.986,0-5.94-1.479-5.94-4.564V552.559H450Zm44.362,0h-3.243c-1.99,2.924-4.11,6.036-6.132,8.988l-6.133-8.988h-3.21l7.737,11.393-7.8,11.33h3.275l6.133-9.117,6.132,9.117h3.275c-2.44-3.6-5.362-7.735-7.8-11.33l7.77-11.393h0Zm15.754,14.5H518.5v-2.636h-8.381v2.636h0Zm26.126-14.5v15.909c0,4.821,4.3,7.264,8.637,7.264,4.3,0,8.637-2.443,8.637-7.264V552.559h-2.7v15.909c0,3.085-2.986,4.564-5.94,4.564-2.986,0-5.94-1.479-5.94-4.564V552.559h-2.7ZM564.2,575.282h2.665V552.559H564.2v22.723h0Zm29.592,0.032c4.335,0,8.638-2.025,8.638-6.814v-9.1c0-4.821-4.3-6.845-8.638-6.845h-7.705v22.755h7.705Zm-5.041-2.7V555.258h5.041c2.986,0,5.94,1.157,5.94,4.146v9.1c0,2.957-2.954,4.114-5.94,4.114h-5.041Zm38.294-20.088H612.465v22.788h14.577v-2.7h-11.88v-7.328h10.949v-2.7H615.162v-7.36h11.88v-2.7h0Zm11.709,5.818c0.161-2.411,2.7-3.6,5.33-3.6,2.409,0,4.945,1.125,5.876,3.246l2.44-1.093c-1.381-3.181-4.945-4.756-8.316-4.756-3.917,0-7.77,2.121-7.994,6.106,0.031,4.565,3.885,5.722,7.577,6.493,3.21,0.675,6.229,1.318,5.94,4.6-0.161,2.475-2.794,3.7-5.491,3.7-2.472,0-5.073-1.157-6.036-3.343l-2.472,1.126c1.413,3.246,5.008,4.885,8.444,4.885,4.046,0,8.027-2.057,8.252-6.236,0.289-5.592-4.046-6.492-8-7.264-2.986-.578-5.748-1.124-5.555-3.856h0Zm23.107,16.938h2.665V552.559h-2.665v22.723h0Zm12.447-6.846c0,4.821,4.27,7.2,8.605,7.2s8.637-2.378,8.637-7.2v-4.95h-9.376v2.668h6.711v2.282c0,3.021-3.018,4.468-5.972,4.468s-5.94-1.447-5.94-4.468v-9.16c0-2.957,2.954-4.4,5.876-4.4a6.223,6.223,0,0,1,5.651,3.085l2.44-1.157a8.717,8.717,0,0,0-8.027-4.628c-4.3,0-8.605,2.41-8.605,7.1v9.16h0Zm26.7-15.877v22.755h2.7V557.283l11.173,18.031h3.4V552.559h-2.7v18.8l-11.687-18.8h-2.89Zm42.661-.033H729.092v22.788h14.577v-2.7h-11.88v-7.328h10.949v-2.7H731.789v-7.36h11.88v-2.7h0Zm19.35,13.462c3.886-.193,6.9-2.084,6.9-6.616-0.1-4.853-3.4-6.813-7.77-6.813h-8.669v22.723h2.7V566.02h3.5l7.353,9.262h3.307l-7.321-9.294h0Zm-6.838-2.47v-8.26h6c2.954-.064,5.041.964,5.041,4.114,0,3.118-1.959,4.146-5.041,4.146h-6Z" transform="translate(-450 -413)"/>
</svg>
