<svg xmlns="http://www.w3.org/2000/svg" width="30" height="30" viewBox="0 0 30 30">
  <defs>
    <style>
      .cls-1 {
        fill: #1bd0c7;
        fill-rule: evenodd;
      }
    </style>
  </defs>
  <path id="Forma_1" data-name="Forma 1" class="cls-1" d="M15,0A15,15,0,1,0,30,15,15,15,0,0,0,15,0Zm0,27.656A12.656,12.656,0,1,1,27.656,15,12.656,12.656,0,0,1,15,27.656Zm0-17.344H7.5v9.375h15V10.313H15Zm0,0.938h5.257L15,14.985,9.743,11.25H15Zm-6.562.265,3.193,2.16L8.438,17.157V11.516ZM15,18.75H9.586l2.67-4.654L15,15.952,17.745,14.1l2.67,4.654H15Zm6.563-1.593-3.193-3.482,3.193-2.16v5.642Z"/>
</svg>
