<svg xmlns="http://www.w3.org/2000/svg" width="30" height="30" viewBox="0 0 30 30">
  <defs>
    <style>
      .cls-1 {
        fill: #1bd0c7;
        fill-rule: evenodd;
      }
    </style>
  </defs>
  <path id="Forma_1" data-name="Forma 1" class="cls-1" d="M15,0A15,15,0,1,0,30,15,15,15,0,0,0,15,0Zm0,27.656A12.656,12.656,0,1,1,27.656,15,12.656,12.656,0,0,1,15,27.656Zm7.5-17.641a5.146,5.146,0,0,1-1.718.525,3.517,3.517,0,0,0,1.29-1.81,4.789,4.789,0,0,1-1.931.736,0,0,0,0,0,0,0A2.986,2.986,0,0,0,17.9,8.438a3.22,3.22,0,0,0-3.094,3.332,3.525,3.525,0,0,0,.079.742h0A8.7,8.7,0,0,1,8.334,9.055a3.49,3.49,0,0,0,.938,4.4,1.886,1.886,0,0,1-1.351-.375,3.186,3.186,0,0,0,2.387,3.256,2.261,2.261,0,0,1-1.288.1,2.979,2.979,0,0,0,2.766,2.263A4.853,4.853,0,0,1,7.5,20.089a8.8,8.8,0,0,0,4.84,1.474c4.993,0,8.87-4.357,8.661-9.732,0-.007,0-0.013,0-0.018s0-.029,0-0.042,0-.033,0-0.05A5.575,5.575,0,0,0,22.5,10.015Z"/>
</svg>
