<svg xmlns="http://www.w3.org/2000/svg" width="20" height="20" viewBox="0 0 20 20">
  <defs>
    <style>
      .cls-1 {
        fill: #fff;
        fill-rule: evenodd;
      }
    </style>
  </defs>
  <path id="Forma_1" data-name="Forma 1" class="cls-1" d="M10,7.5A5.719,5.719,0,0,0,5.625,10,5.719,5.719,0,0,0,10,12.5,5.719,5.719,0,0,0,14.375,10,5.719,5.719,0,0,0,10,7.5Zm0,3.74A1.24,1.24,0,1,1,11.249,10,1.245,1.245,0,0,1,10,11.24ZM10,0A10,10,0,1,0,20,10,10,10,0,0,0,10,0Zm0,18.438A8.438,8.438,0,1,1,18.438,10,8.437,8.437,0,0,1,10,18.438Z"/>
</svg>
